<?xml version="1.0" standalone="no"?><svg xmlns="http://www.w3.org/2000/svg" viewBox="0 0 1440 320"><path fill="#a2d9ff" fill-opacity="1" d="M0,288L21.8,256C43.6,224,87,160,131,122.7C174.5,85,218,75,262,101.3C305.5,128,349,192,393,229.3C436.4,267,480,277,524,245.3C567.3,213,611,139,655,128C698.2,117,742,171,785,186.7C829.1,203,873,181,916,160C960,139,1004,117,1047,122.7C1090.9,128,1135,160,1178,176C1221.8,192,1265,192,1309,202.7C1352.7,213,1396,235,1418,245.3L1440,256L1440,0L1418.2,0C1396.4,0,1353,0,1309,0C1265.5,0,1222,0,1178,0C1134.5,0,1091,0,1047,0C1003.6,0,960,0,916,0C872.7,0,829,0,785,0C741.8,0,698,0,655,0C610.9,0,567,0,524,0C480,0,436,0,393,0C349.1,0,305,0,262,0C218.2,0,175,0,131,0C87.3,0,44,0,22,0L0,0Z"></path></svg>